<svg width="457" height="859" viewBox="0 0 457 859" fill="none" xmlns="http://www.w3.org/2000/svg">
<path d="M223.667 6C223.667 8.94552 226.054 11.3333 229 11.3333C231.946 11.3333 234.333 8.94552 234.333 6C234.333 3.05448 231.946 0.666667 229 0.666667C226.054 0.666667 223.667 3.05448 223.667 6ZM0.666667 784.192C0.666667 787.137 3.05448 789.525 6 789.525C8.94552 789.525 11.3333 787.137 11.3333 784.192C11.3333 781.246 8.94552 778.858 6 778.858C3.05448 778.858 0.666667 781.246 0.666667 784.192ZM445.667 637.75C445.667 640.695 448.054 643.083 451 643.083C453.946 643.083 456.333 640.695 456.333 637.75C456.333 634.804 453.946 632.416 451 632.416C448.054 632.416 445.667 634.804 445.667 637.75ZM0.666667 490.808C0.666667 493.753 3.05448 496.141 6 496.141C8.94552 496.141 11.3333 493.753 11.3333 490.808C11.3333 487.862 8.94552 485.475 6 485.475C3.05448 485.475 0.666667 487.862 0.666667 490.808ZM445.667 343.366C445.667 346.312 448.054 348.7 451 348.7C453.946 348.7 456.333 346.312 456.333 343.366C456.333 340.421 453.946 338.033 451 338.033C448.054 338.033 445.667 340.421 445.667 343.366ZM0.666667 195.425C0.666667 198.37 3.05448 200.758 6 200.758C8.94552 200.758 11.3333 198.37 11.3333 195.425C11.3333 192.479 8.94552 190.092 6 190.092C3.05448 190.092 0.666667 192.479 0.666667 195.425ZM222.851 102.765L222.004 102.232L222.851 102.765ZM210.311 115.305L210.843 116.151L210.311 115.305ZM228 6V52.8389H230V6H228ZM160.385 120.454H79.9707V122.454H160.385V120.454ZM79.9707 270.396H377.029V268.396H79.9707V270.396ZM377.029 416.337H79.4709V418.337H377.029V416.337ZM79.4709 565.279H377.529V563.279H79.4709V565.279ZM377.529 710.221H78.9711V712.221H377.529V710.221ZM78.9711 858.163H229V856.163H78.9711V858.163ZM5 784.192C5 825.045 38.118 858.163 78.9711 858.163V856.163C39.2225 856.163 7 823.94 7 784.192H5ZM78.9711 710.221C38.118 710.221 5 743.339 5 784.192H7C7 744.443 39.2225 712.221 78.9711 712.221V710.221ZM450 637.75C450 677.774 417.554 710.221 377.529 710.221V712.221C418.658 712.221 452 678.879 452 637.75H450ZM377.529 565.279C417.554 565.279 450 597.725 450 637.75H452C452 596.621 418.658 563.279 377.529 563.279V565.279ZM5 490.808C5 531.937 38.3418 565.279 79.4709 565.279V563.279C39.4463 563.279 7 530.833 7 490.808H5ZM79.4709 416.337C38.3418 416.337 5 449.679 5 490.808H7C7 450.783 39.4463 418.337 79.4709 418.337V416.337ZM450 343.366C450 383.667 417.33 416.337 377.029 416.337V418.337C418.434 418.337 452 384.772 452 343.366H450ZM377.029 270.396C417.33 270.396 450 303.066 450 343.366H452C452 301.961 418.434 268.396 377.029 268.396V270.396ZM5 195.425C5 236.83 38.5655 270.396 79.9707 270.396V268.396C39.6701 268.396 7 235.726 7 195.425H5ZM79.9707 120.454C38.5655 120.454 5 154.02 5 195.425H7C7 155.124 39.6701 122.454 79.9707 122.454V120.454ZM228 52.8389C228 66.2447 227.999 76.2272 227.236 84.0816C226.475 91.9206 224.962 97.5341 222.004 102.232L223.697 103.298C226.889 98.2274 228.451 92.2639 229.227 84.275C230.001 76.3014 230 66.2051 230 52.8389H228ZM160.385 122.454C173.751 122.454 183.847 122.455 191.821 121.681C199.81 120.905 205.773 119.343 210.843 116.151L209.778 114.459C205.08 117.416 199.466 118.929 191.627 119.69C183.773 120.453 173.79 120.454 160.385 120.454V122.454ZM222.004 102.232C218.895 107.171 214.717 111.349 209.778 114.459L210.843 116.151C216.036 112.882 220.428 108.49 223.697 103.298L222.004 102.232Z" fill="#CE152F"/>
</svg>
